<svg width="32.000000" height="32.000000" viewBox="0 0 32 32" fill="none" xmlns="http://www.w3.org/2000/svg" xmlns:xlink="http://www.w3.org/1999/xlink">
	<desc>
			Created with Pixso.
	</desc>
	<defs>
		<clipPath id="clip2_456">
			<rect id="fi_731985" rx="0.000000" width="31.000000" height="31.000000" transform="translate(0.500000 0.500000)" fill="white" fill-opacity="0"/>
		</clipPath>
	</defs>
	<rect id="fi_731985" rx="0.000000" width="31.000000" height="31.000000" transform="translate(0.500000 0.500000)" fill="#FFFFFF" fill-opacity="0"/>
	<g clip-path="url(#clip2_456)">
		<path id="Vector" d="M21.99 0C20.29 0.11 18.29 1.2 17.13 2.63C16.07 3.92 15.2 5.83 15.54 7.69C17.4 7.75 19.33 6.63 20.45 5.19C21.49 3.84 22.28 1.94 21.99 0Z" fill="#FFFFFF" fill-opacity="1.000000" fill-rule="nonzero"/>
		<path id="Vector" d="M28.74 10.73C27.1 8.68 24.8 7.48 22.62 7.48C19.75 7.48 18.54 8.86 16.54 8.86C14.49 8.86 12.93 7.49 10.44 7.49C8.01 7.49 5.41 8.98 3.76 11.53C1.45 15.11 1.85 21.86 5.6 27.61C6.94 29.66 8.73 31.97 11.07 31.99C13.16 32.01 13.75 30.66 16.57 30.64C19.4 30.63 19.94 32.01 22.02 31.99C24.36 31.97 26.25 29.41 27.6 27.35C28.56 25.88 28.92 25.14 29.66 23.47C24.24 21.41 23.37 13.69 28.74 10.73Z" fill="#FFFFFF" fill-opacity="1.000000" fill-rule="nonzero"/>
	</g>
</svg>
