<svg width="24.000000" height="23.999947" viewBox="0 0 24 23.9999" fill="none" xmlns="http://www.w3.org/2000/svg" xmlns:xlink="http://www.w3.org/1999/xlink">
	<desc>
			Created with Pixso.
	</desc>
	<defs/>
	<path id="Vector" d="M12 0C9.62 -0.01 7.3 0.7 5.33 2.02C3.36 3.33 1.82 5.21 0.91 7.4C0 9.59 -0.24 12.01 0.23 14.34C0.69 16.66 1.83 18.8 3.51 20.48C5.19 22.16 7.33 23.3 9.65 23.76C11.98 24.23 14.4 23.99 16.59 23.08C18.78 22.17 20.66 20.63 21.97 18.66C23.29 16.69 24 14.37 24 11.99C23.99 8.81 22.73 5.76 20.48 3.51C18.23 1.26 15.18 0 12 0ZM17.45 15.89C17.55 15.99 17.63 16.11 17.68 16.24C17.74 16.37 17.77 16.51 17.77 16.66C17.77 16.8 17.74 16.94 17.68 17.07C17.63 17.21 17.55 17.33 17.45 17.43C17.24 17.63 16.96 17.74 16.67 17.74C16.38 17.74 16.1 17.63 15.9 17.43L12 13.53L8.1 17.43C7.9 17.63 7.62 17.74 7.33 17.74C7.05 17.74 6.77 17.63 6.56 17.43C6.46 17.33 6.38 17.21 6.33 17.07C6.27 16.94 6.24 16.8 6.24 16.66C6.24 16.51 6.27 16.37 6.33 16.24C6.38 16.11 6.46 15.99 6.56 15.89L10.46 11.98L6.56 8.09C6.38 7.88 6.28 7.61 6.28 7.33C6.29 7.05 6.4 6.78 6.6 6.59C6.8 6.39 7.06 6.28 7.34 6.27C7.62 6.26 7.9 6.36 8.1 6.55L12 10.44L15.89 6.55C16.1 6.35 16.37 6.23 16.67 6.23C16.96 6.23 17.23 6.35 17.44 6.55C17.54 6.65 17.62 6.77 17.68 6.9C17.73 7.03 17.76 7.18 17.76 7.32C17.76 7.46 17.73 7.6 17.68 7.74C17.62 7.87 17.54 7.99 17.44 8.09L13.55 11.98L17.45 15.89Z" fill="#FFFFFF" fill-opacity="1.000000" fill-rule="nonzero"/>
</svg>
