<svg width="32.000000" height="32.000000" viewBox="0 0 32 32" fill="none" xmlns="http://www.w3.org/2000/svg" xmlns:xlink="http://www.w3.org/1999/xlink">
	<desc>
			Created with Pixso.
	</desc>
	<defs>
		<clipPath id="clip2_467">
			<rect id="fi_2111370" rx="15.500000" width="31.000000" height="31.000000" transform="translate(0.500000 0.500000)" fill="white" fill-opacity="0"/>
		</clipPath>
	</defs>
	<rect id="fi_2111370" rx="15.500000" width="31.000000" height="31.000000" transform="translate(0.500000 0.500000)" fill="#5C6BC0" fill-opacity="1.000000"/>
	<g clip-path="url(#clip2_467)">
		<circle id="Ellipse 1341" cx="16.500000" cy="17.500000" r="11.500000" fill="#FFFFFF" fill-opacity="1.000000"/>
		<path id="Vector" d="M4.77 29.26L23.78 29.26L25 33C25.13 33.11 30.66 33 30.66 33L30.66 4.29C30.57 2.51 29.04 1 27.13 1L4.78 1C2.87 1 1.33 2.52 1.33 4.3L1.33 25.96C1.33 27.84 2.87 29.26 4.77 29.26ZM18.83 8.57L18.79 8.59L18.8 8.57L18.83 8.57ZM8.66 10.26C11.1 8.49 13.37 8.57 13.37 8.57L13.55 8.75C10.56 9.46 9.2 10.8 9.2 10.8C9.34 10.77 15.38 7.29 22.7 10.89C22.7 10.89 21.34 9.64 18.53 8.84L18.78 8.6C19.17 8.6 21.22 8.67 23.42 10.28C23.42 10.28 25.88 14.48 25.88 19.64C25.8 19.54 24.35 21.86 20.64 21.94C20.64 21.94 20.01 21.22 19.56 20.6C21.73 19.98 22.55 18.73 22.55 18.73C18.32 21.4 14.61 20.98 10.17 19.18C10.13 19.18 10.11 19.16 10.09 19.14L10.09 19.13C10.07 19.11 10.05 19.09 10.01 19.09L9.93 19.09C9.66 18.91 9.48 18.82 9.48 18.82C9.48 18.82 10.29 20.07 12.37 20.7C11.83 21.32 11.28 22.03 11.28 22.03C7.57 21.94 6.21 19.62 6.21 19.62C6.21 14.46 8.66 10.26 8.66 10.26Z" fill="#5C6BC0" fill-opacity="1.000000" fill-rule="nonzero"/>
		<path id="Vector" d="M19.07 18.02C20.02 18.02 20.79 17.22 20.79 16.24C20.79 15.26 20.02 14.46 19.07 14.46L19.07 14.46C18.13 14.46 17.36 15.26 17.35 16.24C17.35 17.22 18.12 18.02 19.07 18.02Z" fill="#5C6BC0" fill-opacity="1.000000" fill-rule="nonzero"/>
		<path id="Vector" d="M12.92 18.02C13.86 18.02 14.64 17.22 14.64 16.24C14.64 15.26 13.87 14.46 12.92 14.46L12.92 14.46C11.97 14.46 11.2 15.26 11.2 16.24C11.2 17.22 11.97 18.02 12.92 18.02Z" fill="#5C6BC0" fill-opacity="1.000000" fill-rule="nonzero"/>
	</g>
</svg>
