<svg width="20.000000" height="20.000000" viewBox="0 0 20 20" fill="none" xmlns="http://www.w3.org/2000/svg" xmlns:xlink="http://www.w3.org/1999/xlink">
	<desc>
			Created with Pixso.
	</desc>
	<defs>
		<clipPath id="clip2_54">
			<rect id="fi_10432252" rx="0.000000" width="19.000000" height="19.000000" transform="translate(0.500000 0.500000)" fill="white" fill-opacity="0"/>
		</clipPath>
	</defs>
	<rect id="fi_10432252" rx="0.000000" width="19.000000" height="19.000000" transform="translate(0.500000 0.500000)" fill="#FFFFFF" fill-opacity="0"/>
	<g clip-path="url(#clip2_54)">
		<path id="Vector" d="M10 0C15.52 0 20 4.47 20 10C20 15.52 15.52 20 10 20C4.47 20 0 15.52 0 10C0 4.47 4.47 0 10 0Z" fill="#1273EB" fill-opacity="1.000000" fill-rule="evenodd"/>
		<path id="Vector" d="M9.63 15.85L9.63 14.62C9.09 14.56 8.61 14.42 8.19 14.19C7.76 13.96 7.43 13.64 7.19 13.22C6.95 12.79 6.84 12.27 6.85 11.65L6.86 11.62L8.97 11.62C8.97 11.95 9.02 12.22 9.12 12.43C9.22 12.63 9.35 12.79 9.52 12.88C9.7 12.98 9.9 13.03 10.12 13.03C10.31 13.03 10.46 12.99 10.58 12.91C10.71 12.84 10.8 12.73 10.86 12.6C10.92 12.46 10.95 12.3 10.95 12.13C10.95 11.92 10.92 11.74 10.86 11.6C10.79 11.45 10.69 11.33 10.54 11.21C10.4 11.1 10.2 10.99 9.94 10.88C9.3 10.62 8.78 10.37 8.36 10.11C7.95 9.86 7.64 9.56 7.45 9.22C7.25 8.88 7.15 8.45 7.15 7.94C7.15 7.24 7.39 6.67 7.86 6.22C8.33 5.77 8.96 5.51 9.75 5.43L9.75 4.14L10.74 4.14L10.74 5.47C11.48 5.58 12.06 5.88 12.49 6.38C12.93 6.87 13.14 7.51 13.13 8.28L13.14 8.33L11.01 8.33C11.01 7.89 10.92 7.56 10.76 7.35C10.59 7.14 10.38 7.04 10.11 7.04C9.84 7.04 9.63 7.12 9.5 7.29C9.37 7.47 9.3 7.69 9.3 7.96C9.3 8.15 9.33 8.3 9.39 8.44C9.45 8.57 9.55 8.69 9.7 8.8C9.85 8.91 10.05 9.03 10.31 9.14C10.94 9.42 11.47 9.69 11.88 9.95C12.3 10.21 12.61 10.51 12.81 10.85C13.01 11.19 13.11 11.61 13.11 12.12C13.11 12.83 12.89 13.4 12.44 13.83C11.99 14.27 11.38 14.53 10.62 14.6L10.62 15.85L9.63 15.85L9.63 15.85Z" fill="#FFFFFF" fill-opacity="1.000000" fill-rule="nonzero"/>
	</g>
</svg>
