<svg width="32.000000" height="32.000000" viewBox="0 0 32 32" fill="none" xmlns="http://www.w3.org/2000/svg" xmlns:xlink="http://www.w3.org/1999/xlink">
	<desc>
			Created with Pixso.
	</desc>
	<defs>
		<clipPath id="clip2_463">
			<rect id="fi_5968764" rx="0.000000" width="31.000000" height="31.000000" transform="translate(0.500000 0.500000)" fill="white" fill-opacity="0"/>
		</clipPath>
	</defs>
	<rect id="fi_5968764" rx="0.000000" width="31.000000" height="31.000000" transform="translate(0.500000 0.500000)" fill="#FFFFFF" fill-opacity="0"/>
	<g clip-path="url(#clip2_463)">
		<path id="Vector" d="M32 16C32 23.98 26.14 30.6 18.5 31.8L18.5 20.62L22.22 20.62L22.93 16L18.5 16L18.5 12.99C18.5 11.73 19.12 10.5 21.1 10.5L23.12 10.5L23.12 6.56C23.12 6.56 21.29 6.25 19.54 6.25C15.88 6.25 13.5 8.46 13.5 12.47L13.5 16L9.43 16L9.43 20.62L13.5 20.62L13.5 31.8C5.85 30.6 0 23.98 0 16C0 7.16 7.16 0 16 0C24.83 0 32 7.16 32 16Z" fill="#1877F2" fill-opacity="1.000000" fill-rule="nonzero"/>
		<path id="Vector" d="M22.22 20.62L22.93 16L18.5 16L18.5 12.99C18.5 11.73 19.11 10.5 21.1 10.5L23.12 10.5L23.12 6.56C23.12 6.56 21.29 6.25 19.54 6.25C15.88 6.25 13.5 8.46 13.5 12.47L13.5 16L9.43 16L9.43 20.62L13.5 20.62L13.5 31.8C14.31 31.93 15.14 32 16 32C16.85 32 17.68 31.93 18.5 31.8L18.5 20.62L22.22 20.62Z" fill="#FFFFFF" fill-opacity="1.000000" fill-rule="nonzero"/>
	</g>
</svg>
