<svg width="32.000000" height="32.000000" viewBox="0 0 32 32" fill="none" xmlns="http://www.w3.org/2000/svg" xmlns:xlink="http://www.w3.org/1999/xlink">
	<desc>
			Created with Pixso.
	</desc>
	<defs>
		<clipPath id="clip2_449">
			<rect id="fi_300221" rx="0.000000" width="31.000000" height="31.000000" transform="translate(0.500000 0.500000)" fill="white" fill-opacity="0"/>
		</clipPath>
	</defs>
	<rect id="fi_300221" rx="0.000000" width="31.000000" height="31.000000" transform="translate(0.500000 0.500000)" fill="#FFFFFF" fill-opacity="0"/>
	<g clip-path="url(#clip2_449)">
		<path id="Vector" d="M30.79 13.21L17.73 13.21C17.16 13.21 16.69 13.68 16.69 14.26L16.69 18.43C16.69 19 17.16 19.47 17.73 19.47L25.08 19.47C24.28 21.56 22.78 23.31 20.86 24.42L24 29.84C29.02 26.94 32 21.83 32 16.12C32 15.31 31.94 14.73 31.82 14.07C31.72 13.58 31.29 13.21 30.79 13.21Z" fill="#167EE6" fill-opacity="1.000000" fill-rule="nonzero"/>
		<path id="Vector" d="M16 25.73C12.4 25.73 9.26 23.77 7.57 20.86L2.15 23.99C4.91 28.77 10.08 32 16 32C18.9 32 21.64 31.21 24 29.85L24 29.84L20.86 24.42C19.43 25.25 17.77 25.73 16 25.73Z" fill="#12B347" fill-opacity="1.000000" fill-rule="nonzero"/>
		<path id="Vector" d="M24 29.85L24 29.84L20.86 24.42C19.43 25.25 17.77 25.73 16 25.73L16 32C18.9 32 21.64 31.21 24 29.85Z" fill="#0F993E" fill-opacity="1.000000" fill-rule="nonzero"/>
		<path id="Vector" d="M6.26 16C6.26 14.22 6.74 12.56 7.57 11.13L2.15 8C0.78 10.35 0 13.09 0 16C0 18.9 0.78 21.64 2.15 23.99L7.57 20.86C6.74 19.43 6.26 17.77 6.26 16Z" fill="#FFD500" fill-opacity="1.000000" fill-rule="nonzero"/>
		<path id="Vector" d="M16 6.26C18.34 6.26 20.5 7.09 22.18 8.48C22.59 8.82 23.2 8.79 23.58 8.41L26.53 5.46C26.96 5.03 26.93 4.32 26.47 3.92C23.65 1.47 19.98 0 16 0C10.08 0 4.91 3.22 2.15 8L7.57 11.13C9.26 8.22 12.4 6.26 16 6.26Z" fill="#FF4B26" fill-opacity="1.000000" fill-rule="nonzero"/>
		<path id="Vector" d="M22.18 8.48C22.59 8.82 23.2 8.79 23.58 8.41L26.53 5.46C26.96 5.03 26.93 4.32 26.47 3.92C23.65 1.47 19.98 0 16 0L16 6.26C18.34 6.26 20.5 7.09 22.18 8.48Z" fill="#D93F21" fill-opacity="1.000000" fill-rule="nonzero"/>
	</g>
</svg>
