<svg width="32.000000" height="32.000000" viewBox="0 0 32 32" fill="none" xmlns="http://www.w3.org/2000/svg" xmlns:xlink="http://www.w3.org/1999/xlink">
	<desc>
			Created with Pixso.
	</desc>
	<defs>
		<clipPath id="clip2_473">
			<rect id="fi_2111646" rx="0.000000" width="31.000000" height="31.000000" transform="translate(0.500000 0.500000)" fill="white" fill-opacity="0"/>
		</clipPath>
	</defs>
	<rect id="fi_2111646" rx="0.000000" width="31.000000" height="31.000000" transform="translate(0.500000 0.500000)" fill="#FFFFFF" fill-opacity="0"/>
	<g clip-path="url(#clip2_473)">
		<path id="Vector" d="M32 16C32 24.83 24.83 32 16 32C7.16 32 0 24.83 0 16C0 7.16 7.16 0 16 0C24.83 0 32 7.16 32 16Z" fill="#039BE5" fill-opacity="1.000000" fill-rule="evenodd"/>
		<path id="Vector" d="M7.32 15.65L22.74 9.7C23.46 9.44 24.08 9.88 23.85 10.96L23.85 10.96L21.23 23.33C21.03 24.21 20.51 24.42 19.78 24.01L15.78 21.06L13.85 22.92C13.64 23.13 13.46 23.31 13.05 23.31L13.33 19.24L20.74 12.54C21.07 12.26 20.67 12.1 20.25 12.38L11.08 18.15L7.13 16.92C6.28 16.65 6.26 16.06 7.32 15.65Z" fill="#FFFFFF" fill-opacity="1.000000" fill-rule="nonzero"/>
	</g>
</svg>
